<?xml version="1.0" encoding="UTF-8" standalone="no"?>
<!-- Generator: Adobe Illustrator 27.2.0, SVG Export Plug-In . SVG Version: 6.00 Build 0)  -->

<svg xmlns:dc="http://purl.org/dc/elements/1.1/" xmlns:cc="http://creativecommons.org/ns#" xmlns:rdf="http://www.w3.org/1999/02/22-rdf-syntax-ns#" xmlns:svg="http://www.w3.org/2000/svg" xmlns="http://www.w3.org/2000/svg" xmlns:sodipodi="http://sodipodi.sourceforge.net/DTD/sodipodi-0.dtd" xmlns:inkscape="http://www.inkscape.org/namespaces/inkscape" version="1.1" id="Ebene_1" x="0px" y="0px" viewBox="0 0 64 64" style="enable-background:new 0 0 64 64;" xml:space="preserve" sodipodi:docname="contentdroplets-checkbox-icon.svg" inkscape:version="0.92.5 (2060ec1f9f, 2020-04-08)"><metadata id="metadata17"><rdf:RDF><cc:Work rdf:about=""><dc:format>image/svg+xml</dc:format><dc:type rdf:resource="http://purl.org/dc/dcmitype/StillImage" /></cc:Work></rdf:RDF></metadata><defs id="defs15" /><sodipodi:namedview pagecolor="#ffffff" bordercolor="#666666" borderopacity="1" objecttolerance="10" gridtolerance="10" guidetolerance="10" inkscape:pageopacity="0" inkscape:pageshadow="2" inkscape:window-width="1920" inkscape:window-height="1009" id="namedview13" showgrid="false" inkscape:zoom="12.828125" inkscape:cx="32" inkscape:cy="32" inkscape:window-x="0" inkscape:window-y="0" inkscape:window-maximized="1" inkscape:current-layer="g829" showguides="true" inkscape:guide-bbox="true"><sodipodi:guide position="32,36.638246" orientation="1,0" id="guide823" inkscape:locked="false" inkscape:label="" inkscape:color="rgb(0,0,255)" /><sodipodi:guide position="7.0158343,32" orientation="0,1" id="guide825" inkscape:locked="false" inkscape:label="" inkscape:color="rgb(0,0,255)" /></sodipodi:namedview>
<style type="text/css" id="style2">
	.st0{fill:#FFFFFF;}
	.st1{fill:none;}
	.st2{enable-background:new    ;}
	.st3{fill:#3E5389;}
</style>

<rect x="35.3" y="-2.3" class="st1" width="42.8" height="51.5" id="rect6" />
<g class="st2" id="g10">
	
<g id="g829"><g id="g834"><path id="rect890" d="m 21.106146,15.849733 h 21.787708 c 2.77,0 5,2.23 5,5 v 22.300534 c 0,2.77 -2.23,5 -5,5 H 21.106146 c -2.77,0 -5,-2.23 -5,-5 V 20.849733 c 0,-2.77 2.23,-5 5,-5 z" style="opacity:1;fill:white;fill-opacity:1;stroke:#3e5389;stroke-width:3.29999995;stroke-linecap:round;stroke-linejoin:round;stroke-miterlimit:4;stroke-dasharray:none;stroke-dashoffset:74.26771545;stroke-opacity:1;paint-order:fill markers stroke" /><path inkscape:connector-curvature="0" class="st3" d="m 34.808343,42.879111 c -0.4,0.4 -0.8,0.6 -1.4,0.6 -0.5,0 -1,-0.2 -1.4,-0.6 l -10.5,-10.5 c -0.4,-0.4 -0.6,-0.9 -0.6,-1.4 0,-0.5 0.2,-1 0.6,-1.4 l 2.7,-2.7 c 0.4,-0.4 0.9,-0.6 1.4,-0.6 0.5,0 1,0.2 1.4,0.6 l 6.4,6.4 15.9,-15.9 c 0.4,-0.4 0.8,-0.6 1.4,-0.6 0.5,0 1,0.2 1.4,0.6 l 2.7,2.7 c 0.4,0.4 0.6,0.9 0.6,1.4 0,0.5 -0.2,1 -0.6,1.4 z" id="path8-3" style="fill:#94c11f;fill-opacity:1" sodipodi:nodetypes="ssssssssscsssssss" /></g></g></g>
</svg>